<svg xmlns="http://www.w3.org/2000/svg" xml:space="preserve" style="fill-rule:evenodd;clip-rule:evenodd;stroke-linejoin:round;stroke-miterlimit:2" viewBox="0 0 1200 900">
  <text x="399.903" y="658.172" style="font-family:&quot;JosefinSans-SemiBold&quot;,&quot;Josefin Sans&quot;;font-weight:600;font-size:48px" transform="translate(43.09 114.317)">Design Theme</text>
  <text x="241.353" y="706.172" style="font-family:&quot;JosefinSans-Light&quot;,&quot;Josefin Sans&quot;;font-weight:300;font-size:36px" transform="translate(43.09 114.317)">child theme de<tspan x="464.877px 481.041px" y="706.172px 706.172px">ve</tspan>loped by Amar Amor<tspan x="823.437" y="706.172">e</tspan>tti</text>
  <text x="445.239" y="754.172" style="font-family:&quot;JosefinSans-Light&quot;,&quot;Josefin Sans&quot;;font-weight:300;font-size:36px" transform="translate(43.09 114.317)">y<tspan x="461.367" y="754.172">a</tspan>oki.academ<tspan x="652.239" y="754.172">y</tspan></text>
  <g transform="translate(301.01 39.5)scale(2.75566)">
    <clipPath id="a">
      <path d="M0 0h217v221H0z"/>
    </clipPath>
    <g clip-path="url(#a)">
      <path d="m170.531 47.264 2.25 1.125c9.807 15.69-9.345 50.28-25.875 33.75-5.696 1.424-2.878 5.84-1.969 10.688 1.246 6.641 1.372 12.775 1.231 19.511-.071 8.329.788 15.391 3.551 23.239q1.1 3.548 2.179 7.101l1.152 3.691c1.221 4.005 2.36 8.027 3.489 12.059 17.025 59.504 50.447-3.574 58.111-33.658 2.647-9.784.961 5.557.881 6.869-.04 2.072-.04 2.072.563 5.625l-1.688-1.687c-.251 1.77-.251 1.77 1.125 2.25 0 3.375 0 3.375-1.687 6.75l-.563 5.062-1.125-.562-1.16 3.304c-1.824 5.045-4.149 9.429-6.715 14.133 2.928-2.928 4.548-6.999 6.188-10.687 3.735-7.47-.622 6.096-1.125 7.312l-1.688.563-.562 3.937-1.688 2.25-.562 2.25h-1.125l-.563 2.25-1.687 1.688-.563 1.687-1.125 1.125-3.375 4.5c-2.25 2.813-2.25 2.813-5.062 5.625l-2.918 3.094c-15.256 14.556-34.873 23.83-55.582 27.281l-1.125.563c-4.575.403-46.688.965-46.688-5.625 11.7.9 11.7.9 15.75 2.25h7.313c-4.429-.836-8.796-1.623-13.29-2.004-7.086-.709 3.699-1.029 4.993-.915l3.841.327c3.331.342 3.331.342 6.143.904 1.301-2.601-4.566-1.57-6.187-1.687v-.563l-3.938-.562c0-1.833 3.617-.68 5.45-.739 11.073-.437 22.132-1.826 32.8-4.886l4.325-1.231c11.32-3.576 16.395-5.179 18.772-7.283 1.931-1.709 2.083-3.75 2.357-7.448-9.393-2.988-10.134-6.81-12.516-15.89-1.044-3.848-2.325-7.26-3.938-10.898l-1.723-3.973a922 922 0 0 0-3.869-8.684c-6.184-13.718-9.683-25.488-10.259-40.557-.872-5.736-10.055 6.025-11.711 9.339h-1.125v1.125h-1.125l-1.125 2.25-3.094 3.058c-6.266 6.338-3.191 6.75 3.656 10.442 16.968 11.464 45.35 45 5.625 45-2.25-5.063-2.25-5.063-3.867-9.669-2.497-7.041-5.378-13.643-9.07-20.144l2.25 5.063c17.337 39.791-6.273 42.703-42.124 42.042-3.324-.296-3.324-.296-2.314 1.833-2.819.184-2.819.184-6.574.14l-3.733-.026c-3.193-.114-3.193-.114-5.443-.677h-5.062q-3.937-.557-7.875-1.125c-3.314-.31-6.628-.594-9.945-.864-7.827-.842 9.432-.798 10.698-.789 8.066.967 8.066.967 6.559-2.284-2.865-5.731-.514-8.552 2.18-13.852 2.298-4.509 2.298-4.509 3.832-8.508 4.262-9.676 20.277-4.79 28.863-3.515 9.137 1.196 9.137 1.196 2.813-3.938-29.022-25.394-13.331-58.147 10.687-81.562l2.813-2.813c8.394-7.945 18.785-12.187 29.907-14.726l3.21-.743 3.054-.685c6.192-1.691 6.619-5.165 8.829-10.846 2.719-4.629 28.687-21.695 28.687-6.75m43.313 91.125.562 1.125zm-11.813 31.5 1.688-1.125c-.612-2.442-.612-2.442-1.688 1.125M70.257 193.718c6.166-.052 12.05-.323 18.149-1.329h5.063c-2.179-2.179-5.606-2.866-8.438-3.937a519 519 0 0 1-8.086-3.657c-14.985-6.66-23.995 7.827-6.688 8.923m-25.726 4.296 2.25.563zm71.438 16.875c-1.324-1.589-1.324-1.589-5.063-1.125 1.324 1.589 1.324 1.589 5.063 1.125" style="fill:#222;fill-rule:nonzero"/>
      <path d="m118.781 1.139 1.688-.562c7.177-.136 7.177-.136 7.875.562h4.5l-2.25 1.125c1.9.518 3.831.925 5.766 1.301 15.141 3.126 28.704 8.778 40.921 18.387l3.059 2.284c5.418 4.469-5.181-1.714-7.034-2.867-3.814-2.292-7.77-4.233-11.775-6.167l-4.5-2.25-.562 1.125-1.125-1.125c-1.875 0 1.747 3.569 3.375 4.5v1.125l2.812 1.125c1.628 3.256-4.863-.489-5.484-.739-3.466-1.441-3.466-1.441 1.547 1.301-2.712.904-4.711-.63-7.313-1.687a822 822 0 0 0-7.875-2.25c-2.812-1.125-2.812-1.125-2.812-2.25l-4.5 1.125a647 647 0 0 1-7.989-.827c-17.414-1.596-36.242.681-52.199 8.139l-2.461 1.083C61.798 28.4 52.779 35.079 44.531 43.327h-1.125l-1.125 2.25-1.617 1.792c-16.102 18.787-24.417 42.692-23.695 67.395l.105 3.726c1.656 15.026 6.417 28.842 14.028 41.871 5.227 8.979-4.71-3.519-5.696-5.097 1.738 3.722 3.658 7.202 5.836 10.688 2.039 3.375 2.039 3.375 2.039 5.625h1.125c3.622 5.501 3.622 5.501 2.25 6.187.993 3.385.993 3.385 2.813 6.188-3.375-1.125-3.375-1.125-5.625-2.813l1.125 2.25c-2.405-1.203-6.75-3.772-6.75-6.75l-2.25-1.125-1.125-2.25c-.156 2.129-.156 2.129 2.25 5.063-2.25-.563-2.25-.563-2.25-1.688h-1.125C1.481 151.369-5.66 111.031 4.594 79.327l.848-2.758c5.3-16.503 13.726-30.115 25.589-42.805l2.356-2.707C51.632 11.017 78.428 1.062 105 .26l4.588-.143c9.193-.23 9.193-.23 9.193 1.022m15.188 7.875 1.125-.562c-1.293-.857-1.293-.857-1.125.562m-3.938 3.375 2.25.563zm22.5 2.813c1.522-.533 1.522-.533.563-2.813-2.3 0-3.145 1.952-.563 2.813m-18-1.125v-1.125c-1.522-.133-1.522-.133 0 1.125m13.5-1.125.563 1.125zm-1.687 3.375.562-1.125c-1.418-.168-1.418-.168-.562 1.125m-124.875 54 .562 1.125zm0 77.062.562 1.125zm.562 1.688.563 1.125zm1.688 3.375.562 1.125zm.562 1.125.563 1.125zm-2.812 16.312.562 1.688z" style="fill:#222;fill-rule:nonzero"/>
    </g>
  </g>
</svg>
